/* XPM */
static char * Sci32M_xpm[] = {
"32 32 797 2",
"  	c None",
". 	c #3D485E",
"+ 	c #3D485F",
"@ 	c #364156",
"# 	c #3B475D",
"$ 	c #414F69",
"% 	c #37435A",
"& 	c #36425B",
"* 	c #3B4A68",
"= 	c #2F3645",
"- 	c #4B5871",
"; 	c #505D74",
"> 	c #4D586E",
", 	c #454F62",
"' 	c #606E88",
") 	c #5B6985",
"! 	c #414D64",
"~ 	c #536280",
"{ 	c #4E5F81",
"] 	c #3F4E69",
"^ 	c #435478",
"/ 	c #384868",
"( 	c #2E384D",
"_ 	c #424D5E",
": 	c #576375",
"< 	c #57606E",
"[ 	c #525B6A",
"} 	c #778192",
"| 	c #3B414B",
"1 	c #8A98A8",
"2 	c #404753",
"3 	c #758398",
"4 	c #4B5669",
"5 	c #58667F",
"6 	c #51607E",
"7 	c #404D68",
"8 	c #47587A",
"9 	c #394868",
"0 	c #364566",
"a 	c #30353E",
"b 	c #485468",
"c 	c #677281",
"d 	c #484F5D",
"e 	c #8F96A5",
"f 	c #3D414E",
"g 	c #A1A6B3",
"h 	c #4D5363",
"i 	c #8992A1",
"j 	c #686E79",
"k 	c #545E70",
"l 	c #8494A9",
"m 	c #3C4454",
"n 	c #586581",
"o 	c #6478A1",
"p 	c #3D4964",
"q 	c #46587D",
"r 	c #4A5D87",
"s 	c #323E5C",
"t 	c #354464",
"u 	c #23262D",
"v 	c #636F7E",
"w 	c #404551",
"x 	c #9BA1A7",
"y 	c #222531",
"z 	c #C7C8CD",
"A 	c #393C48",
"B 	c #A3A6B3",
"C 	c #7A7D86",
"D 	c #404557",
"E 	c #BEC3D0",
"F 	c #535768",
"G 	c #434B5E",
"H 	c #8FA0B8",
"I 	c #5E6983",
"J 	c #3D465C",
"K 	c #6A7EA7",
"L 	c #506285",
"M 	c #45567B",
"N 	c #445983",
"O 	c #3A4A70",
"P 	c #293246",
"Q 	c #404B5C",
"R 	c #48505C",
"S 	c #6F7A88",
"T 	c #636570",
"U 	c #888A94",
"V 	c #20222B",
"W 	c #DBDDE2",
"X 	c #50535F",
"Y 	c #6C6E76",
"Z 	c #D1D3DC",
"` 	c #2A2E3F",
" .	c #505564",
"..	c #C4C9D3",
"+.	c #5C6374",
"@.	c #353A44",
"#.	c #8092AC",
"$.	c #7283A0",
"%.	c #3B4359",
"&.	c #3F4C67",
"*.	c #5B72A2",
"=.	c #425379",
"-.	c #3E4C6F",
";.	c #3C4F7A",
">.	c #374668",
",.	c #2A2E35",
"'.	c #54627A",
").	c #9299A1",
"!.	c #3C404D",
"~.	c #878996",
"{.	c #878A99",
"].	c #373E55",
"^.	c #CCCDD6",
"/.	c #767989",
"(.	c #3C435E",
"_.	c #A8AAB4",
":.	c #A8AAB8",
"<.	c #363B4E",
"[.	c #565A68",
"}.	c #C2CEDA",
"|.	c #76829B",
"1.	c #353E56",
"2.	c #54617C",
"3.	c #86A2D2",
"4.	c #5E6F96",
"5.	c #4A557A",
"6.	c #45567D",
"7.	c #5975B2",
"8.	c #3E4E75",
"9.	c #3A4362",
"0.	c #202023",
"a.	c #627183",
"b.	c #394152",
"c.	c #B8BBC3",
"d.	c #2A2D39",
"e.	c #848591",
"f.	c #A0A3B3",
"g.	c #1C202C",
"h.	c #A2A8BE",
"i.	c #C9CAD3",
"j.	c #212431",
"k.	c #4D5164",
"l.	c #D7D7DB",
"m.	c #8B8C95",
"n.	c #36384A",
"o.	c #4D5160",
"p.	c #AEBFD0",
"q.	c #8495AC",
"r.	c #424C72",
"s.	c #3B4560",
"t.	c #5F749D",
"u.	c #6A86B9",
"v.	c #526288",
"w.	c #5F6D9F",
"x.	c #415582",
"y.	c #5572B5",
"z.	c #2F3D5B",
"A.	c #47566D",
"B.	c #7D8C9E",
"C.	c #33343A",
"D.	c #C6C7CF",
"E.	c #242A3A",
"F.	c #6E7792",
"G.	c #CFD1D8",
"H.	c #424A62",
"I.	c #494C57",
"J.	c #DFE0E3",
"K.	c #8C8E9C",
"L.	c #22242C",
"M.	c #616471",
"N.	c #DDDEE2",
"O.	c #838692",
"P.	c #404357",
"Q.	c #4F5777",
"R.	c #8293AB",
"S.	c #97AFD1",
"T.	c #444C73",
"U.	c #4A5579",
"V.	c #607DB6",
"W.	c #5977B2",
"X.	c #333E59",
"Y.	c #464E6C",
"Z.	c #4D6399",
"`.	c #363F4B",
" +	c #4B596D",
".+	c #8492A4",
"++	c #363A46",
"@+	c #CFD0D4",
"#+	c #3F4C6D",
"$+	c #3C4256",
"%+	c #ECEEF5",
"&+	c #5F6169",
"*+	c #555B77",
"=+	c #8E909D",
"-+	c #DCDCE3",
";+	c #717385",
">+	c #24252D",
",+	c #616472",
"'+	c #E8EBF3",
")+	c #A0A9BC",
"!+	c #222430",
"~+	c #424C70",
"{+	c #8BA3C8",
"]+	c #96B6E9",
"^+	c #647AA9",
"/+	c #293044",
"(+	c #46506E",
"_+	c #667BB3",
":+	c #6A8CD6",
"<+	c #7090DC",
"[+	c #313A54",
"}+	c #1F242E",
"|+	c #222326",
"1+	c #657B92",
"2+	c #3C4558",
"3+	c #919FB2",
"4+	c #262C3C",
"5+	c #BEC1CA",
"6+	c #676C7D",
"7+	c #384467",
"8+	c #ADADB5",
"9+	c #C9CDDC",
"0+	c #2A2D3A",
"a+	c #3D4253",
"b+	c #C5C6CD",
"c+	c #D6D6DF",
"d+	c #53586E",
"e+	c #34384B",
"f+	c #4E5365",
"g+	c #C1D2E5",
"h+	c #B1C4E5",
"i+	c #505A79",
"j+	c #212331",
"k+	c #3F486A",
"l+	c #7E9BD4",
"m+	c #84AAEF",
"n+	c #5A70A8",
"o+	c #252C3C",
"p+	c #242938",
"q+	c #4B5F90",
"r+	c #5D82D2",
"s+	c #48649F",
"t+	c #273147",
"u+	c #6F8398",
"v+	c #333841",
"w+	c #A0ABB5",
"x+	c #283454",
"y+	c #99A1B7",
"z+	c #A8AFBF",
"A+	c #21283B",
"B+	c #878EA8",
"C+	c #EBECF2",
"D+	c #71778C",
"E+	c #2D344D",
"F+	c #4C4E5D",
"G+	c #D4D8E4",
"H+	c #BDC0CB",
"I+	c #41465B",
"J+	c #454E73",
"K+	c #464C60",
"L+	c #9AAEC8",
"M+	c #A3BEDE",
"N+	c #6876A0",
"O+	c #353B57",
"P+	c #272C3C",
"Q+	c #3E4C6D",
"R+	c #7DA2EA",
"S+	c #6487CB",
"T+	c #647CAB",
"U+	c #535E85",
"V+	c #2B3550",
"W+	c #3A4E7A",
"X+	c #5170A4",
"Y+	c #4C4E51",
"Z+	c #8096AC",
"`+	c #2C323F",
" @	c #B7C4D0",
".@	c #3C4A6C",
"+@	c #4C5773",
"@@	c #DCDCE1",
"#@	c #5D6A8F",
"$@	c #242D47",
"%@	c #9A9EAD",
"&@	c #DBDBDE",
"*@	c #575D70",
"=@	c #3F4A70",
"-@	c #404456",
";@	c #DFE5F3",
">@	c #D5E0F0",
",@	c #3D4453",
"'@	c #3A4568",
")@	c #4E5982",
"!@	c #67799B",
"~@	c #9EC0F4",
"{@	c #6D87B6",
"]@	c #62709E",
"^@	c #555F8A",
"/@	c #343A4F",
"(@	c #3F537E",
"_@	c #668EDD",
":@	c #597DC5",
"<@	c #303E5C",
"[@	c #3A4357",
"}@	c #445072",
"|@	c #333C52",
"1@	c #44494F",
"2@	c #7C95A3",
"3@	c #262E3D",
"4@	c #A0A9B1",
"5@	c #5E6980",
"6@	c #324576",
"7@	c #C8CAD2",
"8@	c #9BA3B7",
"9@	c #2E3445",
"0@	c #4F5978",
"a@	c #D8D9DE",
"b@	c #CAD0E2",
"c@	c #2B3142",
"d@	c #455681",
"e@	c #565E72",
"f@	c #BFCFD9",
"g@	c #B6CCE5",
"h@	c #5B698A",
"i@	c #23293B",
"j@	c #56638D",
"k@	c #6A7EAB",
"l@	c #7B9DD7",
"m@	c #7DA1E1",
"n@	c #475A80",
"o@	c #434C67",
"p@	c #5C6A98",
"q@	c #677BB2",
"r@	c #6685C4",
"s@	c #6791E1",
"t@	c #7BA5EB",
"u@	c #4B5C7B",
"v@	c #1E2026",
"w@	c #444D55",
"x@	c #79868D",
"y@	c #4B5259",
"z@	c #6B7786",
"A@	c #B1C0D7",
"B@	c #2B334A",
"C@	c #788AAD",
"D@	c #EBEDF2",
"E@	c #66779C",
"F@	c #242C39",
"G@	c #7B8DAB",
"H@	c #D9DCE2",
"I@	c #C2CEE3",
"J@	c #464F63",
"K@	c #374458",
"L@	c #546173",
"M@	c #97ADC6",
"N@	c #B5D5F7",
"O@	c #8BA3C4",
"P@	c #323A4F",
"Q@	c #383F4C",
"R@	c #515D77",
"S@	c #6E8CBE",
"T@	c #729BE0",
"U@	c #779FE7",
"V@	c #455981",
"W@	c #202530",
"X@	c #242832",
"Y@	c #2D374D",
"Z@	c #55729B",
"`@	c #A9CAD7",
" #	c #677A89",
".#	c #465159",
"+#	c #616D7B",
"@#	c #88909B",
"##	c #2F3747",
"$#	c #CCD7DF",
"%#	c #525C70",
"&#	c #4F638E",
"*#	c #B3B5BA",
"=#	c #BDC0C7",
"-#	c #506A96",
";#	c #313D4E",
">#	c #6C80A8",
",#	c #DFEDF4",
"'#	c #A6BBCB",
")#	c #374869",
"!#	c #232A39",
"~#	c #526286",
"{#	c #7288A8",
"]#	c #A0C5F3",
"^#	c #87A7CE",
"/#	c #5E7091",
"(#	c #384150",
"_#	c #282C35",
":#	c #4D6083",
"<#	c #8DB7F3",
"[#	c #7DADF3",
"}#	c #7199CA",
"|#	c #7D9DC6",
"1#	c #5C71A3",
"2#	c #424E66",
"3#	c #576478",
"4#	c #5A6B87",
"5#	c #414954",
"6#	c #4F5E73",
"7#	c #B0BCC5",
"8#	c #363F4C",
"9#	c #BBCDE3",
"0#	c #D3E3F0",
"a#	c #2A3242",
"b#	c #51648B",
"c#	c #DEE0E4",
"d#	c #B7BEC8",
"e#	c #313E5E",
"f#	c #374871",
"g#	c #62728D",
"h#	c #C5E2F2",
"i#	c #A2BCD1",
"j#	c #596B91",
"k#	c #272C38",
"l#	c #484F64",
"m#	c #6A7C9E",
"n#	c #89ADDB",
"o#	c #8EBBEB",
"p#	c #819FC2",
"q#	c #77869D",
"r#	c #454F65",
"s#	c #2E3647",
"t#	c #354258",
"u#	c #89AABE",
"v#	c #CCE9F5",
"w#	c #92B3C9",
"x#	c #4D5E76",
"y#	c #242935",
"z#	c #17181C",
"A#	c #4B556B",
"B#	c #515F72",
"C#	c #89939D",
"D#	c #6A7B8E",
"E#	c #6B7C8D",
"F#	c #D8DBE0",
"G#	c #5A6682",
"H#	c #2C3D64",
"I#	c #778195",
"J#	c #EAF0F8",
"K#	c #8E9AB4",
"L#	c #252B3F",
"M#	c #42568E",
"N#	c #56667D",
"O#	c #D9F3FC",
"P#	c #BED0D8",
"Q#	c #6F7586",
"R#	c #30333F",
"S#	c #515667",
"T#	c #6B7794",
"U#	c #88A5B6",
"V#	c #C5E7F6",
"W#	c #A1B7C2",
"X#	c #6E7D8C",
"Y#	c #5D6D8D",
"Z#	c #677BA9",
"`#	c #6C82AE",
" $	c #97B5D5",
".$	c #A2C5E9",
"+$	c #8DB5F4",
"@$	c #6B87C8",
"#$	c #3A4665",
"$$	c #3F4862",
"%$	c #545D78",
"&$	c #4C5569",
"*$	c #9DADC8",
"=$	c #2B3A58",
"-$	c #798AAF",
";$	c #D4DEF0",
">$	c #454D5E",
",$	c #374D81",
"'$	c #6D778D",
")$	c #E6EDF2",
"!$	c #9FAFCF",
"~$	c #29324C",
"{$	c #435283",
"]$	c #4D5566",
"^$	c #B2C3D0",
"/$	c #CAE4F1",
"($	c #A3B5CB",
"_$	c #4F5464",
":$	c #43454F",
"<$	c #656975",
"[$	c #69768D",
"}$	c #85A2BF",
"|$	c #9EC5F4",
"1$	c #7694C8",
"2$	c #3E4B6B",
"3$	c #252A37",
"4$	c #1E2028",
"5$	c #16171C",
"6$	c #1F2229",
"7$	c #384564",
"8$	c #343D54",
"9$	c #3A4158",
"0$	c #616D94",
"a$	c #333E5F",
"b$	c #868EAA",
"c$	c #49567A",
"d$	c #2A3F72",
"e$	c #A6AEBF",
"f$	c #999EB2",
"g$	c #435A8F",
"h$	c #333D5B",
"i$	c #8690A5",
"j$	c #D0DFF5",
"k$	c #7B88AC",
"l$	c #353E5B",
"m$	c #454F6E",
"n$	c #464E62",
"o$	c #A4B8D4",
"p$	c #A9C6F3",
"q$	c #8599C5",
"r$	c #676F88",
"s$	c #40424B",
"t$	c #7F89A4",
"u$	c #97ABD1",
"v$	c #7A98DC",
"w$	c #7293E3",
"x$	c #5F7ABB",
"y$	c #627BB1",
"z$	c #586988",
"A$	c #2B2F3B",
"B$	c #16171B",
"C$	c #18191C",
"D$	c #36405E",
"E$	c #5A6896",
"F$	c #2D3244",
"G$	c #909ACA",
"H$	c #3D5189",
"I$	c #475070",
"J$	c #ADB5E0",
"K$	c #7D87B1",
"L$	c #374D8F",
"M$	c #262F49",
"N$	c #6876A1",
"O$	c #ABB7E6",
"P$	c #8792BF",
"Q$	c #545D7F",
"R$	c #3D4257",
"S$	c #404352",
"T$	c #67708B",
"U$	c #879BDB",
"V$	c #819AE3",
"W$	c #8796C2",
"X$	c #525970",
"Y$	c #3D414C",
"Z$	c #373C4D",
"`$	c #404C6D",
" %	c #556BA5",
".%	c #536DB0",
"+%	c #5874BB",
"@%	c #5770B2",
"#%	c #344164",
"$%	c #3C486C",
"%%	c #515878",
"&%	c #313545",
"*%	c #5E617B",
"=%	c #7E89B8",
"-%	c #2B334C",
";%	c #48506F",
">%	c #A8ADDC",
",%	c #8492D1",
"'%	c #252A3B",
")%	c #2B3048",
"!%	c #636C93",
"~%	c #919AC9",
"{%	c #8792BE",
"]%	c #51576E",
"^%	c #575B6C",
"/%	c #5E5F69",
"(%	c #565B6C",
"_%	c #6F7BA2",
":%	c #7187CC",
"<%	c #6377B4",
"[%	c #6F80AC",
"}%	c #5B6581",
"|%	c #4B5169",
"1%	c #535E7E",
"2%	c #6373A1",
"3%	c #566796",
"4%	c #3D4866",
"5%	c #38476D",
"6%	c #37476F",
"7%	c #323646",
"8%	c #394059",
"9%	c #545971",
"0%	c #202128",
"a%	c #696B8C",
"b%	c #656FA5",
"c%	c #2A3A6B",
"d%	c #565F84",
"e%	c #9297CD",
"f%	c #7579A1",
"g%	c #414B72",
"h%	c #37405F",
"i%	c #525D80",
"j%	c #70779D",
"k%	c #8993C2",
"l%	c #686F8E",
"m%	c #525563",
"n%	c #525462",
"o%	c #4D4E58",
"p%	c #454A5E",
"q%	c #68759C",
"r%	c #52649C",
"s%	c #4F64A0",
"t%	c #3A4872",
"u%	c #2A324C",
"v%	c #1D212D",
"w%	c #21232C",
"x%	c #3A3C47",
"y%	c #303444",
"z%	c #191B1E",
"A%	c #34394B",
"B%	c #404764",
"C%	c #484B5E",
"D%	c #242632",
"E%	c #8596DE",
"F%	c #6681CC",
"G%	c #2D3855",
"H%	c #424E77",
"I%	c #8388B9",
"J%	c #7C83B8",
"K%	c #383E58",
"L%	c #404969",
"M%	c #434A63",
"N%	c #5C6485",
"O%	c #717AA6",
"P%	c #666E95",
"Q%	c #5A5F76",
"R%	c #4A4C56",
"S%	c #656B7F",
"T%	c #606A84",
"U%	c #3B4159",
"V%	c #323B56",
"W%	c #3C4B76",
"X%	c #44578F",
"Y%	c #3C4D7E",
"Z%	c #364570",
"`%	c #303C61",
" &	c #2E364D",
".&	c #323546",
"+&	c #444A66",
"@&	c #3D3F4F",
"#&	c #404A66",
"$&	c #8399CC",
"%&	c #6E819E",
"&&	c #3E507C",
"*&	c #344169",
"=&	c #6A79B5",
"-&	c #7376A1",
";&	c #565C7B",
">&	c #434D69",
",&	c #4F597A",
"'&	c #49506B",
")&	c #5B6381",
"!&	c #535C81",
"~&	c #5B678F",
"{&	c #454B66",
"]&	c #40465A",
"^&	c #474E69",
"/&	c #5A688F",
"(&	c #4D5261",
"_&	c #282A2F",
":&	c #24293C",
"<&	c #333D59",
"[&	c #303C5F",
"}&	c #2D2F3B",
"|&	c #373D54",
"1&	c #474A5F",
"2&	c #3C4057",
"3&	c #3F5083",
"4&	c #849ABA",
"5&	c #334373",
"6&	c #344578",
"7&	c #525D8F",
"8&	c #686E9B",
"9&	c #5B6282",
"0&	c #424A67",
"a&	c #4D5B81",
"b&	c #444D65",
"c&	c #434B68",
"d&	c #5B668C",
"e&	c #58638C",
"f&	c #465074",
"g&	c #414B6E",
"h&	c #2F364B",
"i&	c #252830",
"j&	c #3F4046",
"k&	c #343740",
"l&	c #191A1E",
"m&	c #1A1B21",
"n&	c #2D303E",
"o&	c #373E59",
"p&	c #3F4154",
"q&	c #3C3D50",
"r&	c #262C3D",
"s&	c #495672",
"t&	c #6477A2",
"u&	c #3D4D7A",
"v&	c #33426E",
"w&	c #363F5F",
"x&	c #4B5171",
"y&	c #525875",
"z&	c #4F5774",
"A&	c #444C68",
"B&	c #485375",
"C&	c #3E455E",
"D&	c #454F70",
"E&	c #56638A",
"F&	c #383F57",
"G&	c #313A57",
"H&	c #3D496E",
"I&	c #323D60",
"J&	c #364265",
"K&	c #222736",
"L&	c #2C2F3D",
"M&	c #31374C",
"N&	c #33374A",
"O&	c #3A3C4D",
"P&	c #1D1F26",
"Q&	c #303850",
"R&	c #4E5B8D",
"S&	c #43496D",
"T&	c #344068",
"U&	c #3B466A",
"V&	c #353E5D",
"W&	c #49506E",
"X&	c #454A64",
"Y&	c #414864",
"Z&	c #495372",
"`&	c #292D3B",
" *	c #3B3D49",
".*	c #1F2128",
"+*	c #363C51",
"@*	c #1D212F",
"#*	c #272A36",
"$*	c #2B3146",
"%*	c #2F364E",
"&*	c #383B4E",
"**	c #3F496A",
"=*	c #303751",
"-*	c #3A3E55",
";*	c #3C3E52",
">*	c #3A4059",
",*	c #394260",
"'*	c #2C334A",
")*	c #383F56",
"!*	c #383D51",
"~*	c #353A4C",
"{*	c #32384C",
"]*	c #31374B",
"^*	c #333950",
"/*	c #282E41",
"(*	c #202431",
"_*	c #1A1B1F",
":*	c #262B37",
"<*	c #282C3D",
"[*	c #303547",
"}*	c #393D53",
"|*	c #32384E",
"1*	c #343B54",
"2*	c #292C38",
"3*	c #2F3242",
"4*	c #2C303F",
"5*	c #2C2F3C",
"6*	c #252832",
"7*	c #2D313E",
"8*	c #262935",
"9*	c #2A2E3C",
"0*	c #21242F",
"a*	c #20242E",
"b*	c #222429",
"c*	c #262A3B",
"d*	c #1A1C22",
"e*	c #282C3B",
"f*	c #30364C",
"g*	c #333A54",
"h*	c #2A3044",
"i*	c #272A37",
"j*	c #292E3F",
"k*	c #2A2F42",
"l*	c #272D3F",
"m*	c #1E212A",
"n*	c #1B1C1F",
"o*	c #1C1E21",
"p*	c #1D1F22",
"q*	c #22242D",
"r*	c #232631",
"s*	c #222734",
"t*	c #1C1D23",
"u*	c #1E1F22",
"v*	c #1C1D21",
"                        . + @ # $ % & *                         ",
"                  = - ; > , ' ) ! ~ { ] ^ / (                   ",
"                _ : < [ } | 1 2 3 4 5 6 7 8 9 0                 ",
"            a b c d e f g h i j k l m n o p q r s t             ",
"          u v w x y z A B C D E F G H I J K L M N O P           ",
"        Q R S T U V W X Y Z `  ...+.@.#.$.%.&.*.=.-.;.>.        ",
"      ,.'.).!.~.{.].^./.(._.:.<.[.}.|.1.2.3.4.5.6.7.8.9.0.      ",
"      a.b.c.d.e.f.g.h.i.j.k.l.m.n.o.p.q.r.s.t.u.v.w.x.y.z.      ",
"    A.B.C.D.E.F.G.H.I.J.K.L.M.N.O.P.Q.R.S.6 T.U.V.W.X.Y.Z.0     ",
"  `. +.+++@+#+$+%+&+*+=+-+;+>+,+'+)+!+~+{+]+^+/+(+_+:+<+[+}+|+  ",
"  1+2+3+4+5+6+7+8+9+0+a+b+c+d+e+f+g+h+i+j+k+l+m+n+o+p+q+r+s+t+  ",
"  u+v+w+x+y+z+A+B+C+D+E+F+G+H+I+J+K+L+M+N+O+P+Q+R+S+T+U+V+W+X+  ",
"Y+Z+`+ @.@+@@@#@$@%@&@*@=@-@;@>@,@'@)@!@~@{@]@^@/@(@_@:@<@[@}@|@",
"1@2@3@4@5@6@7@8@9@0@a@b@c@d@e@f@g@h@i@j@k@l@m@n@o@p@q@r@s@t@u@v@",
"w@x@y@z@A@B@C@D@E@F@G@H@I@J@K@L@M@N@O@P@Q@R@S@T@U@V@W@X@Y@Z@`@ #",
".#+#@###$#%#&#*#=#-#;#>#,#'#)#!#~#{#]#^#/#(#_#:#<#[#}#|#1#2#3#4#",
"5#6#7#8#9#0#a#b#c#d#e#f#g#h#i#j#k#l#m#n#o#p#q#r#s#t#u#v#w#x#y#z#",
"A#B#C#D#E#F#G#H#I#J#K#L#M#N#O#P#Q#R#S#T#U#V#W#X#Y#Z#`# $.$+$@$#$",
"$$%$&$*$=$-$;$>$,$'$)$!$~${$]$^$/$($_$:$<$[$}$|$1$2$3$4$5$6$7$8$",
"9$0$a$b$c$d$e$f$g$h$i$j$k$l$m$n$o$p$q$r$s$o.t$u$v$w$x$y$z$A$B$C$",
"  D$E$F$G$H$I$J$K$L$M$N$O$P$Q$R$S$T$U$V$W$X$++Y$Z$`$ %.%+%@%#%  ",
"  $%%%&%*%=%-%;%>%,%'%)%!%~%{%]%^%/%(%_%:%<%[%}%|%1%2%3%4%5%6%  ",
"  7%8%9%0%a%b%c%d%e%f%g%h%i%j%k%l%m%n%o%p%q%r%s%t%u%v%w%x%y%z%  ",
"    A%B%C%D%E%F%G%H%I%J%K%L%M%N%O%P%Q%R%S%T%U%V%W%X%Y%Z%`% &    ",
"      .&+&@&#&$&%&&&*&=&-&;&>&,&'&)&!&~&{&]&^&/&(&_&:&<&[&      ",
"      }&|&1&2&3&4&R.5&6&7&8&9&0&a&b&c&d&e&f&g&h&i&j&k&l&m&      ",
"        n&o&p&q&r&s&t&u&v&w&x&y&z&A&B&C&D&E&F&G&H&I&J&K&        ",
"          L&M&N&O&P&Q&R&S&T&U&V&W&X&Y&F&Z&`& *.*+*K&@*          ",
"            #*$*%*&***=*-*;*>*,*'*)*!*~*{*]*^*/*(*_*            ",
"                :*<*[*}*|*1*2*3*4*5*6*7*8*9*0*a*                ",
"                  b*c*d*e*2*f*g*h*i*j*k*l*m*n*                  ",
"                        o*p*q*r*s*t*u*v*                        "};
